<?xml version="1.0" encoding="UTF-8" standalone="no"?>
<!-- Created with Inkscape (http://www.inkscape.org/) -->

<svg
   xmlns:dc="http://purl.org/dc/elements/1.1/"
   xmlns:cc="http://creativecommons.org/ns#"
   xmlns:rdf="http://www.w3.org/1999/02/22-rdf-syntax-ns#"
   xmlns:svg="http://www.w3.org/2000/svg"
   xmlns="http://www.w3.org/2000/svg"
   xmlns:sodipodi="http://sodipodi.sourceforge.net/DTD/sodipodi-0.dtd"
   xmlns:inkscape="http://www.inkscape.org/namespaces/inkscape"
   version="1.1"
   width="503.139"
   height="156.542"
   id="svg5802"
   inkscape:version="0.48.4 r9939"
   sodipodi:docname="logo2.svg">
  <sodipodi:namedview
     pagecolor="#ffffff"
     bordercolor="#666666"
     borderopacity="1"
     objecttolerance="10"
     gridtolerance="10"
     guidetolerance="10"
     inkscape:pageopacity="0"
     inkscape:pageshadow="2"
     inkscape:window-width="1920"
     inkscape:window-height="1030"
     id="namedview36"
     showgrid="false"
     showguides="true"
     inkscape:guide-bbox="true"
     inkscape:zoom="0.5"
     inkscape:cx="-448.50035"
     inkscape:cy="194.26668"
     inkscape:window-x="0"
     inkscape:window-y="0"
     inkscape:window-maximized="1"
     inkscape:current-layer="svg5802">
    <sodipodi:guide
       orientation="1,0"
       position="0.23207519,130.42626"
       id="guide3013" />
  </sodipodi:namedview>
  <defs
     id="defs5804" />
  <metadata
     id="metadata5807">
    <rdf:RDF>
      <cc:Work
         rdf:about="">
        <dc:format>image/svg+xml</dc:format>
        <dc:type
           rdf:resource="http://purl.org/dc/dcmitype/StillImage" />
        <dc:title />
      </cc:Work>
    </rdf:RDF>
  </metadata>
  <g
     transform="matrix(-1.9306365,0,0,-1.9306365,-2221.5009,-15.5027)"
     id="g3456-6-3-2-2-0-9-6"
     style="fill:#34b1c4;fill-opacity:1">
    <path
       d="m -1269.6475,-44.685629 c -1.7165,-0.247106 -3.679,0.787362 -4.4894,1.499253 -2.3813,2.091789 0.043,0.732972 1.7929,0.592107 1.1711,-0.09433 2.8403,0.103382 3.7095,0.439413 1.1965,0.462584 1.5868,0.363077 1.6074,-0.409888 0.015,-0.561447 0.073,-1.125643 0.13,-1.253783 0.121,-0.274475 -0.9255,-0.604388 -2.7504,-0.867102 z"
       id="path3303-7-12-7-7-2-3-3-7"
       style="fill:#34b1c4;fill-opacity:1"
       inkscape:connector-curvature="0" />
    <path
       d="m -1270.8392,-39.571592 c -2.0978,0.51107 -3.8292,2.71125 -4.4,3.96915 -1.6772,3.69613 0.4215,0.87857 2.3603,-0.124 1.2981,-0.67129 3.3166,-1.22054 4.4856,-1.22054 1.6093,0 2.0074,-0.30722 1.6397,-1.26543 -0.2671,-0.69599 -0.4856,-1.41599 -0.4856,-1.6 0,-0.39415 -1.3697,-0.30253 -3.6,0.24082 z m -0.73,8.24554 c -1.9219,1.77151 -3.5983,3.95716 -3.9073,4.8 -1.6652,4.54256 -0.084,1.99162 2.7454,-0.3891 1.2864,-1.08249 3.5884,-2.20256 5.1154,-2.48903 2.9541,-0.55418 3.2669,-1.13156 1.9483,-3.59539 -1.1717,-2.18944 -1.9507,-1.96857 -5.9018,1.67352 z m 3.7647,4.97652 c -2.8685,2.02777 -4.2347,4.47461 -4.2347,7.58428 l 0,2.10644 2.2,-2.42159 c 1.21,-1.33187 3.2081,-3.06995 4.4401,-3.86239 1.4653,-0.9424 2.1571,-2.00086 2,-3.05984 -0.3433,-2.31455 -1.4937,-2.40514 -4.4054,-0.3469 z m 2.7452,6.20919 c -1.417,1.65501 -1.7798,3.79287 -1.5262,8.99336 0.1674,3.4327195 1.7463,4.1453095 1.7463,0.78815 0,-1.21652 0.72,-3.55521 1.6,-5.1971 2.7558,-5.14166 1.4573,-8.41215 -1.8201,-4.58441 z"
       id="path3303-7-5-9-4-0-8-6-74-5"
       style="fill:#34b1c4;fill-opacity:1"
       inkscape:connector-curvature="0" />
  </g>
  <path
     d="m 224.11977,74.2728 c -3.43963,-21.2305 -1.68989,-14.6022 -3.52457,-21.6954 -2.41002,-9.317 -3.73752,-13.6658 -9.76883,-27.1676 -2.55771,-1.7805 -5.15808,1.6541 -7.3341,2.7954 -7.66309,5.5848 -16.58533,8.9714 -25.35525,12.373 -2.57103,1.0666 -5.10383,2.2464 -7.48353,3.6967 -0.70005,2.6662 3.50468,3.2328 4.921,4.9423 12.86267,8.5351 26.22364,16.288 39.55546,24.057 2.50886,1.3878 5.0741,2.908 7.9297,3.401 1.10085,-0.1515 1.07614,-1.5688 1.05934,-2.4024 z"
     id="path3303-3-5-3-5-9-9-1-5-3"
     style="fill:#393f43;fill-opacity:1"
     inkscape:connector-curvature="0" />
  <path
     d="m 176.27889,107.1268 c 0.54,-0.6296 0.88694,-2.5897 0.77071,-4.3557 -0.2031,-3.0846 -0.0888,-3.0745 2.90523,0.2585 3.4763,3.87 6.58636,2.7721 6.20661,-2.1909 -0.23187,-3.0296 -0.0618,-3.0845 2.76428,-0.8947 4.18427,3.242 7.22174,2.7361 5.9369,-0.9887 -1.2275,-3.5586 0.51394,-4.0912 3.45198,-1.0557 2.73282,2.8234 4.75245,1.193 4.39007,-3.5441 -0.27975,-3.6547 -0.14672,-3.7155 3.60276,-1.6491 4.20512,2.3172 6.28172,0.6813 4.33814,-3.4174 -0.96821,-2.0423 -0.43477,-2.3284 3.18652,-1.7085 4.08658,0.6996 4.26902,0.503 3.01585,-3.2501 -0.78867,-2.3619 -0.69233,-4.0438 0.23553,-4.1148 2.88592,-0.2208 1.35608,-2.3944 -3.92537,-5.5773 -2.87819,-1.7345 -13.97877,-8.727 -24.66793,-15.5388 -10.68936,-6.8119 -20.34659,-12.3155 -21.46057,-12.2302 -1.36805,0.1046 -1.89376,2.5332 -1.62,7.4818 0.22318,4.0298 0.46953,14.2925 0.54792,22.8062 0.10425,11.2206 0.83925,17.1307 2.67412,21.4817 2.77182,6.5718 6.11124,10.2783 7.64725,8.4877 z"
     id="path3303-6-1-2-36-7-0-2-5"
     style="fill:#34b1c4;fill-opacity:1"
     inkscape:connector-curvature="0" />
  <path
     style="fill:#393f43;fill-opacity:1"
     d="m 121.375,52.442627 c -3.83113,-0.01791 -2.66308,7.261229 -9.8125,-6.473877 -0.87676,1.70081 -2.63035,4.951256 -4.75,8.84375 -0.95487,-1.165302 -3.23447,-1.783887 -7.15625,-2.53125 C 96.71898,51.72145 91.9197,50.6241 89,49.8125 c -10.63047,-2.9553 -10.06539,-4.2891 -9.84375,22.75 0.10966,13.3826 0.11005,26.25895 0,28.59375 -0.11001,2.3346 -0.1875,6.5625 -0.1875,6.5625 0.02427,-0.0172 0.03842,-0.0453 0.0625,-0.0625 0.119442,0.61776 0.795284,0.81251 2.4375,0.3125 5.0826,-2.6334 11.24094,-2.6352 14.4375,2.8125 6.56242,7.6065 4.41236,18.73595 0.59375,27.09375 -1.23426,4.1222 -6.04599,9.20585 -3.4375,13.28125 6.05544,-4.315 9.98213,-8.41095 12.65625,3.84375 8.06446,-10.082 7.90568,-4.8792 12.03125,1.8125 4.22308,-8.4335 7.24354,-7.71245 12.40625,-1.15625 2.71738,-11.076 4.78592,-9.1693 10.46875,-3.625 1.50203,-13.2106 11.76656,2.998 10.65625,-4.0625 -2.50848,-6.3231 -6.60188,-12.05105 -7.71875,-18.90625 -1.96539,-7.4757 -0.15597,-16.1762 6.15625,-21.0625 3.91291,-5.52715 9.98655,2.50613 13.3125,-0.46875 0.086,0.0633 0.16159,0.12496 0.25,0.1875 0,0 0.001,-0.37191 0,-0.4375 0.0102,-0.0114 0.0211,-0.0196 0.0312,-0.0312 -0.0108,-0.0276 -0.0203,-0.066 -0.0312,-0.0937 -0.0147,-0.80288 -0.0904,-3.93814 -0.1875,-6 -0.11004,-2.334642 -0.10966,-15.21125 0,-28.59375 0.22163,-27.0392 0.78672,-25.7051 -9.84375,-22.75 -2.9197,0.8117 -7.68773,1.90905 -10.625,2.46875 -3.92626,0.748258 -6.23465,1.36326 -7.1875,2.53125 -2.18601,-3.860496 -4.02174,-7.107929 -4.9375,-8.84375 -3.8964,12.746096 -5.29387,6.491789 -9.125,6.473877 z"
     id="path3303-2-6-9-9-5-4-6"
     inkscape:connector-curvature="0"
     sodipodi:nodetypes="sccccsccccccccccccccccccccsccccs" />
  <g
     transform="matrix(1.9306365,0,0,-1.9306365,2464.0688,-15.5027)"
     id="g3456-6-3-2-2-0-5-6-9"
     style="fill:#34b1c4;fill-opacity:1">
    <path
       d="m -1269.6475,-44.685629 c -1.7165,-0.247106 -3.679,0.787362 -4.4894,1.499253 -2.3813,2.091789 0.043,0.732972 1.7929,0.592107 1.1711,-0.09433 2.8403,0.103382 3.7095,0.439413 1.1965,0.462584 1.5868,0.363077 1.6074,-0.409888 0.015,-0.561447 0.073,-1.125643 0.13,-1.253783 0.121,-0.274475 -0.9255,-0.604388 -2.7504,-0.867102 z"
       id="path3303-7-12-7-7-2-3-4-8-3"
       style="fill:#34b1c4;fill-opacity:1"
       inkscape:connector-curvature="0" />
    <path
       d="m -1270.8392,-39.571592 c -2.0978,0.51107 -3.8292,2.71125 -4.4,3.96915 -1.6772,3.69613 0.4215,0.87857 2.3603,-0.124 1.2981,-0.67129 3.3166,-1.22054 4.4856,-1.22054 1.6093,0 2.0074,-0.30722 1.6397,-1.26543 -0.2671,-0.69599 -0.4856,-1.41599 -0.4856,-1.6 0,-0.39415 -1.3697,-0.30253 -3.6,0.24082 z m -0.73,8.24554 c -1.9219,1.77151 -3.5983,3.95716 -3.9073,4.8 -1.6652,4.54256 -0.084,1.99162 2.7454,-0.3891 1.2864,-1.08249 3.5884,-2.20256 5.1154,-2.48903 2.9541,-0.55418 3.2669,-1.13156 1.9483,-3.59539 -1.1717,-2.18944 -1.9507,-1.96857 -5.9018,1.67352 z m 3.7647,4.97652 c -2.8685,2.02777 -4.2347,4.47461 -4.2347,7.58428 l 0,2.10644 2.2,-2.42159 c 1.21,-1.33187 3.2081,-3.06995 4.4401,-3.86239 1.4653,-0.9424 2.1571,-2.00086 2,-3.05984 -0.3433,-2.31455 -1.4937,-2.40514 -4.4054,-0.3469 z m 2.7452,6.20919 c -1.417,1.65501 -1.7798,3.79287 -1.5262,8.99336 0.1674,3.4327195 1.7463,4.1453095 1.7463,0.78815 0,-1.21652 0.72,-3.55521 1.6,-5.1971 2.7558,-5.14166 1.4573,-8.41215 -1.8201,-4.58441 z"
       id="path3303-7-5-9-4-0-8-6-7-8-6"
       style="fill:#34b1c4;fill-opacity:1"
       inkscape:connector-curvature="0" />
  </g>
  <path
     d="m 18.44803,74.2728 c 3.43963,-21.2305 1.68989,-14.6022 3.52457,-21.6954 2.41002,-9.317 3.73752,-13.6658 9.76883,-27.1676 2.55771,-1.7805 5.15808,1.6541 7.3341,2.7954 7.66309,5.5848 16.58533,8.9714 25.35525,12.373 2.57103,1.0666 5.10383,2.2464 7.48353,3.6967 0.70005,2.6662 -3.50468,3.2328 -4.921,4.9423 -12.86267,8.5351 -26.22364,16.288 -39.55546,24.057 -2.50886,1.3878 -5.0741,2.908 -7.9297,3.401 -1.10085,-0.1515 -1.07614,-1.5688 -1.05934,-2.4024 z"
     id="path3303-3-5-3-5-9-9-1-6-4-0"
     style="fill:#393f43;fill-opacity:1"
     inkscape:connector-curvature="0" />
  <path
     d="m 66.28891,107.1268 c -0.54,-0.6296 -0.88694,-2.5897 -0.77071,-4.3557 0.2031,-3.0846 0.0888,-3.0745 -2.90523,0.2585 -3.4763,3.87 -6.58636,2.7721 -6.20661,-2.1909 0.23187,-3.0296 0.0618,-3.0845 -2.76428,-0.8947 -4.18427,3.242 -7.22174,2.7361 -5.9369,-0.9887 1.2275,-3.5586 -0.51394,-4.0912 -3.45198,-1.0557 -2.73282,2.8234 -4.75245,1.193 -4.39007,-3.5441 0.27975,-3.6547 0.14672,-3.7155 -3.60276,-1.6491 -4.20512,2.3172 -6.28172,0.6813 -4.33814,-3.4174 0.96821,-2.0423 0.43477,-2.3284 -3.18652,-1.7085 -4.08658,0.6996 -4.26902,0.503 -3.01585,-3.2501 0.78867,-2.3619 0.69233,-4.0438 -0.23553,-4.1148 -2.88592,-0.2208 -1.35608,-2.3944 3.92537,-5.5773 2.87819,-1.7345 13.97877,-8.727 24.66793,-15.5388 10.68936,-6.8119 20.34659,-12.3155 21.46057,-12.2302 1.36805,0.1046 1.89376,2.5332 1.62,7.4818 -0.22318,4.0298 -0.46953,14.2925 -0.54792,22.8062 -0.10425,11.2206 -0.83925,17.1307 -2.67412,21.4817 -2.77182,6.5718 -6.11124,10.2783 -7.64725,8.4877 z"
     id="path3303-6-1-2-36-7-0-5-3-6"
     style="fill:#34b1c4;fill-opacity:1"
     inkscape:connector-curvature="0" />
  <path
     inkscape:connector-curvature="0"
     id="path3059"
     style="font-size:24px;font-style:normal;font-variant:normal;font-weight:bold;font-stretch:normal;line-height:125%;letter-spacing:0px;word-spacing:0px;fill:#393f43;fill-opacity:0.94117647;stroke:none;font-family:Pothana2000;-inkscape-font-specification:Pothana2000 Bold"
     d="m 370.91071,124.36644 c 0.9453,1e-5 1.62108,-0.17577 2.02734,-0.52734 0.41405,-0.35156 0.62108,-0.92968 0.62109,-1.73438 -1e-5,-0.79686 -0.20704,-1.36717 -0.62109,-1.71094 -0.40626,-0.34373 -1.08204,-0.51561 -2.02734,-0.51562 l -1.89844,0 0,4.48828 1.89844,0 m -1.89844,3.11719 0,6.62109 -4.51172,0 0,-17.49609 6.89062,0 c 2.30468,10e-6 3.99218,0.38673 5.0625,1.16015 1.07811,0.77346 1.61718,1.99611 1.61719,3.66797 -10e-6,1.15626 -0.28126,2.10548 -0.84375,2.84766 -0.5547,0.7422 -1.39454,1.28907 -2.51953,1.64062 0.61718,0.14064 1.16796,0.46095 1.65234,0.96094 0.49218,0.4922 0.98827,1.24219 1.48829,2.25 l 2.44921,4.96875 -4.80468,0 -2.13282,-4.34766 c -0.42969,-0.87499 -0.86719,-1.47265 -1.3125,-1.79296 -0.4375,-0.32031 -1.02344,-0.48047 -1.75781,-0.48047 l -1.27734,0" />
  <path
     inkscape:connector-curvature="0"
     id="path3061"
     style="font-size:24px;font-style:normal;font-variant:normal;font-weight:bold;font-stretch:normal;line-height:125%;letter-spacing:0px;word-spacing:0px;fill:#393f43;fill-opacity:0.94117647;stroke:none;font-family:Pothana2000;-inkscape-font-specification:Pothana2000 Bold"
     d="m 382.9693,116.60863 12.17578,0 0,3.41015 -7.66406,0 0,3.25782 7.20703,0 0,3.41015 -7.20703,0 0,4.00781 7.92187,0 0,3.41016 -12.43359,0 0,-17.49609" />
  <path
     inkscape:connector-curvature="0"
     id="path3063"
     style="font-size:24px;font-style:normal;font-variant:normal;font-weight:bold;font-stretch:normal;line-height:125%;letter-spacing:0px;word-spacing:0px;fill:#393f43;fill-opacity:0.94117647;stroke:none;font-family:Pothana2000;-inkscape-font-specification:Pothana2000 Bold"
     d="m 411.55133,117.15941 0,3.70312 c -0.96095,-0.42967 -1.89845,-0.75389 -2.8125,-0.97265 -0.91407,-0.21874 -1.77735,-0.32811 -2.58984,-0.32813 -1.07814,2e-5 -1.87501,0.14845 -2.39063,0.44531 -0.51563,0.29689 -0.77344,0.75783 -0.77344,1.38282 0,0.46876 0.17187,0.83595 0.51563,1.10156 0.35156,0.25782 0.98437,0.48048 1.89844,0.66797 l 1.92187,0.38672 c 1.9453,0.39063 3.32811,0.98438 4.14844,1.78125 0.8203,0.79688 1.23045,1.92969 1.23047,3.39843 -2e-5,1.9297 -0.57424,3.36719 -1.72266,4.3125 -1.14064,0.9375 -2.88673,1.40625 -5.23828,1.40625 -1.10938,0 -2.22266,-0.10546 -3.33984,-0.3164 -1.11719,-0.21094 -2.23438,-0.52344 -3.35157,-0.9375 l 0,-3.8086 c 1.11719,0.59376 2.19531,1.04298 3.23438,1.34766 1.04687,0.29688 2.05468,0.44532 3.02344,0.44531 0.98436,1e-5 1.73827,-0.16406 2.26172,-0.49218 0.52342,-0.32813 0.78514,-0.79687 0.78515,-1.40625 -10e-6,-0.54687 -0.1797,-0.96875 -0.53906,-1.26563 -0.35157,-0.29687 -1.0586,-0.56249 -2.12109,-0.79687 l -1.7461,-0.38672 c -1.75,-0.375 -3.03125,-0.97265 -3.84375,-1.79297 -0.80469,-0.8203 -1.20703,-1.92577 -1.20703,-3.31641 0,-1.74217 0.5625,-3.08201 1.6875,-4.01953 1.125,-0.93748 2.74218,-1.40623 4.85156,-1.40625 0.96093,2e-5 1.94921,0.0742 2.96485,0.22266 1.01561,0.14064 2.06639,0.35548 3.15234,0.64453" />
  <path
     inkscape:connector-curvature="0"
     id="path3065"
     style="font-size:24px;font-style:normal;font-variant:normal;font-weight:bold;font-stretch:normal;line-height:125%;letter-spacing:0px;word-spacing:0px;fill:#393f43;fill-opacity:0.94117647;stroke:none;font-family:Pothana2000;-inkscape-font-specification:Pothana2000 Bold"
     d="m 416.67242,116.60863 12.17579,0 0,3.41015 -7.66407,0 0,3.25782 7.20703,0 0,3.41015 -7.20703,0 0,4.00781 7.92188,0 0,3.41016 -12.4336,0 0,-17.49609" />
  <path
     inkscape:connector-curvature="0"
     id="path3067"
     style="font-size:24px;font-style:normal;font-variant:normal;font-weight:bold;font-stretch:normal;line-height:125%;letter-spacing:0px;word-spacing:0px;fill:#393f43;fill-opacity:0.94117647;stroke:none;font-family:Pothana2000;-inkscape-font-specification:Pothana2000 Bold"
     d="m 443.69586,130.91722 -7.05469,0 -1.11328,3.1875 -4.53515,0 6.48047,-17.49609 5.3789,0 6.48047,17.49609 -4.53516,0 -1.10156,-3.1875 m -5.92969,-3.24609 4.79297,0 -2.39062,-6.96094 -2.40235,6.96094" />
  <path
     inkscape:connector-curvature="0"
     id="path3069"
     style="font-size:24px;font-style:normal;font-variant:normal;font-weight:bold;font-stretch:normal;line-height:125%;letter-spacing:0px;word-spacing:0px;fill:#393f43;fill-opacity:0.94117647;stroke:none;font-family:Pothana2000;-inkscape-font-specification:Pothana2000 Bold"
     d="m 458.05133,124.36644 c 0.9453,1e-5 1.62108,-0.17577 2.02734,-0.52734 0.41406,-0.35156 0.62109,-0.92968 0.6211,-1.73438 -10e-6,-0.79686 -0.20704,-1.36717 -0.6211,-1.71094 -0.40626,-0.34373 -1.08204,-0.51561 -2.02734,-0.51562 l -1.89844,0 0,4.48828 1.89844,0 m -1.89844,3.11719 0,6.62109 -4.51172,0 0,-17.49609 6.89063,0 c 2.30468,10e-6 3.99217,0.38673 5.0625,1.16015 1.07811,0.77346 1.61717,1.99611 1.61719,3.66797 -2e-5,1.15626 -0.28127,2.10548 -0.84375,2.84766 -0.55471,0.7422 -1.39455,1.28907 -2.51953,1.64062 0.61717,0.14064 1.16795,0.46095 1.65234,0.96094 0.49217,0.4922 0.98827,1.24219 1.48828,2.25 l 2.44922,4.96875 -4.80469,0 -2.13281,-4.34766 c -0.4297,-0.87499 -0.8672,-1.47265 -1.3125,-1.79296 -0.43751,-0.32031 -1.02345,-0.48047 -1.75781,-0.48047 l -1.27735,0" />
  <path
     inkscape:connector-curvature="0"
     id="path3071"
     style="font-size:24px;font-style:normal;font-variant:normal;font-weight:bold;font-stretch:normal;line-height:125%;letter-spacing:0px;word-spacing:0px;fill:#393f43;fill-opacity:0.94117647;stroke:none;font-family:Pothana2000;-inkscape-font-specification:Pothana2000 Bold"
     d="m 483.98492,133.14378 c -0.82814,0.42969 -1.69142,0.75391 -2.58984,0.97266 -0.89845,0.21875 -1.83595,0.32812 -2.8125,0.32812 -2.91407,0 -5.22266,-0.81249 -6.92578,-2.4375 -1.70313,-1.6328 -2.55469,-3.84374 -2.55469,-6.63281 0,-2.79686 0.85156,-5.0078 2.55469,-6.63281 1.70312,-1.6328 4.01171,-2.4492 6.92578,-2.44922 0.97655,2e-5 1.91405,0.10939 2.8125,0.32813 0.89842,0.21876 1.7617,0.54298 2.58984,0.97265 l 0,3.6211 c -0.83595,-0.5703 -1.66017,-0.98827 -2.47265,-1.25391 -0.81251,-0.26561 -1.66798,-0.39842 -2.56641,-0.39844 -1.60938,2e-5 -2.87501,0.51564 -3.79687,1.54688 -0.92188,1.03126 -1.38282,2.45313 -1.38282,4.26562 0,1.8047 0.46094,3.22266 1.38282,4.25391 0.92186,1.03125 2.18749,1.54688 3.79687,1.54687 0.89843,1e-5 1.7539,-0.13281 2.56641,-0.39843 0.81248,-0.26563 1.6367,-0.68359 2.47265,-1.25391 l 0,3.62109" />
  <path
     inkscape:connector-curvature="0"
     id="path3073"
     style="font-size:24px;font-style:normal;font-variant:normal;font-weight:bold;font-stretch:normal;line-height:125%;letter-spacing:0px;word-spacing:0px;fill:#393f43;fill-opacity:0.94117647;stroke:none;font-family:Pothana2000;-inkscape-font-specification:Pothana2000 Bold"
     d="m 487.73492,116.60863 4.51172,0 0,6.66797 6.65625,0 0,-6.66797 4.51172,0 0,17.49609 -4.51172,0 0,-7.41797 -6.65625,0 0,7.41797 -4.51172,0 0,-17.49609" />
  <g
     style="font-size:20.61769294999999858px;font-style:normal;font-weight:normal;line-height:125%;letter-spacing:0px;word-spacing:0px;fill:#393f43;fill-opacity:0.94117647;stroke:none;font-family:Sans"
     id="text5215-0-7-9"
     transform="matrix(1.1640488,0,0,1.3422976,2552.7351,-12.02376)">
    <path
       inkscape:connector-curvature="0"
       style="font-size:89.34333037999999760px;font-variant:normal;font-weight:bold;font-stretch:normal;fill:#393f43;fill-opacity:0.94117647;font-family:Padauk;-inkscape-font-specification:Padauk Bold"
       id="path5224-8-3-1"
       d="m -1810.5783,81.949036 -11.1679,0 -11.5169,-43.537424 -11.6042,43.537424 -11.0807,0 -14.9196,-56.10133 10.9934,0 9.6847,42.926678 11.2552,-42.926678 11.3424,0 11.1679,42.926678 9.6847,-42.926678 11.0806,0 -14.9196,56.10133" />
  </g>
  <g
     style="font-size:20.61769294999999858px;font-style:normal;font-weight:normal;line-height:125%;letter-spacing:0px;word-spacing:0px;fill:#393f43;fill-opacity:0.94117647;stroke:none;font-family:Sans"
     id="text5215-0-7-4-2"
     transform="matrix(1.1640488,0,0,1.3422976,2583.782,-12.02376)">
    <path
       inkscape:connector-curvature="0"
       style="font-size:89.34333037999999760px;font-variant:normal;font-weight:bold;font-stretch:normal;fill:#393f43;fill-opacity:0.94117647;font-family:Padauk;-inkscape-font-specification:Padauk Bold"
       id="path5220-9-9-3-7"
       d="m -1944.0698,81.949036 0,-25.040563 -23.7318,0 0,25.040563 -10.0337,0 0,-56.10133 10.0337,0 0,22.946578 23.7318,0 0,-22.946578 10.2082,0 0,56.10133 -10.2082,0" />
  </g>
  <g
     style="font-size:20.61769294999999858px;font-style:normal;font-weight:normal;line-height:125%;letter-spacing:0px;word-spacing:0px;fill:#393f43;fill-opacity:0.94117647;stroke:none;font-family:Sans"
     id="text5215-0-7-2-0"
     transform="matrix(1.1640488,0,0,1.3422976,2547.5241,-12.02376)">
    <path
       inkscape:connector-curvature="0"
       style="font-size:89.34333037999999760px;font-variant:normal;font-weight:bold;font-stretch:normal;fill:#393f43;fill-opacity:0.94117647;font-family:Padauk;-inkscape-font-specification:Padauk Bold"
       id="path5226-5-2-0-9"
       d="m -1768.8597,81.949036 -21.9868,-30.362773 c -0.025,-3.44739 20.2418,-25.738557 20.2418,-25.738557 l 12.0404,0 -21.2016,24.778814 23.7319,31.322516 -12.8257,0" />
  </g>
  <g
     style="font-size:20.61769294999999858px;font-style:normal;font-weight:normal;line-height:125%;letter-spacing:0px;word-spacing:0px;fill:#34b1c4;fill-opacity:1;stroke:none;font-family:Sans"
     id="text5215-8-3-3-2-7"
     transform="matrix(1.1640488,0,0,1.3422976,2580.4616,-12.03448)">
    <path
       inkscape:connector-curvature="0"
       style="font-size:89.34333037999999760px;font-variant:normal;font-weight:bold;font-stretch:normal;fill:#34b1c4;fill-opacity:1;font-family:Padauk;-inkscape-font-specification:Padauk Bold"
       id="path5222-3-8-5-6-9"
       d="m -1888.143,68.948883 -23.9935,0 -4.886,13.000153 -10.2082,0 21.8996,-56.10133 1.9665,0 m 3.6226,10.255953 -9.1663,24.818284 17.9331,4.8e-5" />
  </g>
  <path
     style="fill:#34b1c4;fill-opacity:1;fill-rule:nonzero;stroke:none"
     d="m 121.1406,23.627075 -30.875002,55.437505 30.875002,56.6875 30.875,-56.6875 -30.875,-55.437505 z"
     id="path3900"
     inkscape:connector-curvature="0" />
  <path
     d="m 134.25784,47.172697 -12.24912,19.3326 -14.10126,-19.132156 c 0,0 5.30219,-7.966195 1.13144,-25.058944 l 6.84507,1.8015 c 0,0 14.77092,-6.845 19.09419,3.2421 0,0 9.36668,1.0812 9.72713,8.6465 0,0 -7.20533,-5.4039 -10.8079,-1.8014 -3.60295,3.603 0.36045,12.9698 0.36045,12.9698"
     id="path18-9-3-1-7-0"
     style="fill:#393f43;fill-opacity:1;fill-rule:nonzero;stroke:none"
     inkscape:connector-curvature="0"
     sodipodi:nodetypes="ccccccccc" />
</svg>
